<svg width="60" height="60" viewBox="0 0 60 60" fill="none" xmlns="http://www.w3.org/2000/svg">
<path d="M15.692 24.75C9.37345 20.4776 14.5809 13.8122 18.75 20.619" stroke="black" stroke-opacity="0.9" stroke-width="2.4" stroke-linecap="round" stroke-linejoin="round"/>
<path d="M38.85 20.0697C41.9559 15.079 49.3171 15.7336 44.7379 22.5" stroke="black" stroke-opacity="0.9" stroke-width="2.4" stroke-linecap="round" stroke-linejoin="round"/>
<path d="M24.1729 23.85C24.0543 23.115 24.4267 22.4046 24.6 21.75" stroke="black" stroke-opacity="0.9" stroke-width="2.4" stroke-linecap="round" stroke-linejoin="round"/>
<path d="M29.1 24.75C29.1613 23.4924 29.2422 22.2317 29.4 21" stroke="black" stroke-opacity="0.9" stroke-width="2.4" stroke-linecap="round" stroke-linejoin="round"/>
<path d="M34.2 23.85C34.2 23.1991 34.2 22.5493 34.2 21.9" stroke="black" stroke-opacity="0.9" stroke-width="2.4" stroke-linecap="round" stroke-linejoin="round"/>
<path d="M22.95 33.45C24.0709 33.1373 25.2579 33.0035 26.4 32.85" stroke="black" stroke-opacity="0.9" stroke-width="2.4" stroke-linecap="round" stroke-linejoin="round"/>
<path d="M33.75 32.85C34.9343 32.6139 36.0422 32.6897 37.2 32.85" stroke="black" stroke-opacity="0.9" stroke-width="2.4" stroke-linecap="round" stroke-linejoin="round"/>
<path d="M28.2 38.4007C33.225 35.8113 32.6007 39.6903 28.7218 39.0847" stroke="black" stroke-opacity="0.9" stroke-width="2.4" stroke-linecap="round" stroke-linejoin="round"/>
<path d="M30.15 40.05C29.8581 43.2459 27.296 43.5262 25.05 42.5601" stroke="black" stroke-opacity="0.9" stroke-width="2.4" stroke-linecap="round" stroke-linejoin="round"/>
<path d="M30.0062 40.05C29.8297 44.2948 33.5372 43.6509 35.5501 41.611" stroke="black" stroke-opacity="0.9" stroke-width="2.4" stroke-linecap="round" stroke-linejoin="round"/>
<path d="M16.65 36.45C14.449 35.7342 12.1218 35.6947 9.90002 35.4" stroke="black" stroke-opacity="0.9" stroke-width="2.4" stroke-linecap="round" stroke-linejoin="round"/>
<path d="M17.4 40.05C14.9801 40.6212 12.5614 41.0628 10.2 41.85" stroke="black" stroke-opacity="0.9" stroke-width="2.4" stroke-linecap="round" stroke-linejoin="round"/>
<path d="M43.95 34.95C45.6751 34.494 47.3532 33.843 49.05 33.3" stroke="black" stroke-opacity="0.9" stroke-width="2.4" stroke-linecap="round" stroke-linejoin="round"/>
<path d="M44.55 39.15C46.3286 38.9245 48.3207 39.004 49.95 39.0643" stroke="black" stroke-opacity="0.9" stroke-width="2.4" stroke-linecap="round" stroke-linejoin="round"/>
</svg>
