<svg width="60" height="60" viewBox="0 0 60 60" fill="none" xmlns="http://www.w3.org/2000/svg">
<path d="M24.8812 34.0824C29.0151 33.5388 33.4551 33.6049 37.2913 34.2249" stroke="black" stroke-opacity="0.9" stroke-width="2.4" stroke-linecap="round" stroke-linejoin="round"/>
<path d="M27.6223 35.8803C27.9457 35.316 27.6063 34.8277 27.5298 34.3036" stroke="black" stroke-opacity="0.9" stroke-width="2.4" stroke-linecap="round" stroke-linejoin="round"/>
<path d="M34.001 35.6928C34.001 35.2173 34.001 34.7417 34.001 34.2669" stroke="black" stroke-opacity="0.9" stroke-width="2.4" stroke-linecap="round" stroke-linejoin="round"/>
<path d="M25.0277 25.4634C25.2038 24.6046 24.9376 23.5765 24.8636 22.8409" stroke="black" stroke-opacity="0.9" stroke-width="2.4" stroke-linecap="round" stroke-linejoin="round"/>
<path d="M30.4369 26.5959C30.463 24.7992 30.4369 22.9862 30.4369 21.1793" stroke="black" stroke-opacity="0.9" stroke-width="2.4" stroke-linecap="round" stroke-linejoin="round"/>
<path d="M35.3175 24.714C35.2623 23.7142 35.2357 22.7194 35.2357 21.717" stroke="black" stroke-opacity="0.9" stroke-width="2.4" stroke-linecap="round" stroke-linejoin="round"/>
<path d="M13.711 23.0379C6.31812 16.4483 15.6835 16.2084 19.567 22.2747" stroke="black" stroke-opacity="0.9" stroke-width="2.4" stroke-linecap="round" stroke-linejoin="round"/>
<path d="M41.2186 20.9343C43.987 12.7579 50.7345 16.204 45.2539 23.4598" stroke="black" stroke-opacity="0.9" stroke-width="2.4" stroke-linecap="round" stroke-linejoin="round"/>
<path d="M30.9719 39.5326C33.9917 38.5893 32.7125 42.0789 30.6456 39.3727" stroke="black" stroke-opacity="0.9" stroke-width="2.4" stroke-linecap="round" stroke-linejoin="round"/>
<path d="M31.5566 41.5395C30.4485 43.0707 29.804 43.2795 28.8278 43.65" stroke="black" stroke-opacity="0.9" stroke-width="2.4" stroke-linecap="round" stroke-linejoin="round"/>
<path d="M32.1766 41.9643C32.664 43.0678 33.4639 42.9976 34.245 43.2754" stroke="black" stroke-opacity="0.9" stroke-width="2.4" stroke-linecap="round" stroke-linejoin="round"/>
<path d="M17.9242 36.5148C15.7356 36.2743 12.8594 36.1804 10.9672 35.9529" stroke="black" stroke-opacity="0.9" stroke-width="2.4" stroke-linecap="round" stroke-linejoin="round"/>
<path d="M18.0792 40.7082C16.1318 41.3868 14.212 42.1383 12.2502 42.7686" stroke="black" stroke-opacity="0.9" stroke-width="2.4" stroke-linecap="round" stroke-linejoin="round"/>
<path d="M48.6576 34.2789C46.6913 34.7465 44.8343 35.6373 43.0167 36.5267" stroke="black" stroke-opacity="0.9" stroke-width="2.4" stroke-linecap="round" stroke-linejoin="round"/>
<path d="M49.2 40.4711C47.4059 40.3325 45.5718 40.2446 43.0167 40.4111" stroke="black" stroke-opacity="0.9" stroke-width="2.4" stroke-linecap="round" stroke-linejoin="round"/>
</svg>
