<svg width="60" height="60" viewBox="0 0 60 60" fill="none" xmlns="http://www.w3.org/2000/svg">
<path d="M15.7262 21.8638C12.6574 15.486 17.0964 14.084 20.7093 19.0153" stroke="black" stroke-opacity="0.9" stroke-width="2.4" stroke-linecap="round" stroke-linejoin="round"/>
<path d="M41.7675 18.8505C46.5027 12.8896 47.4687 18.5227 45.9547 23.4532" stroke="black" stroke-opacity="0.9" stroke-width="2.4" stroke-linecap="round" stroke-linejoin="round"/>
<path d="M26.1223 22.4832C26.1718 21.7063 26.2218 20.9311 26.2713 20.1561" stroke="black" stroke-opacity="0.9" stroke-width="2.4" stroke-linecap="round" stroke-linejoin="round"/>
<path d="M31.2878 23.4516C31.2342 21.963 31.4145 20.4716 31.5861 18.9944" stroke="black" stroke-opacity="0.9" stroke-width="2.4" stroke-linecap="round" stroke-linejoin="round"/>
<path d="M36.2037 22.4826C36.4608 21.7356 36.3032 20.9318 36.3533 20.1567" stroke="black" stroke-opacity="0.9" stroke-width="2.4" stroke-linecap="round" stroke-linejoin="round"/>
<path d="M24.6174 29.8205C30.761 29.7357 29.5232 31.523 24.2792 33.4995" stroke="black" stroke-opacity="0.9" stroke-width="2.4" stroke-linecap="round" stroke-linejoin="round"/>
<path d="M35.6766 29.653C30.5421 31.9063 31.5819 30.9621 35.5046 33.5289" stroke="black" stroke-opacity="0.9" stroke-width="2.4" stroke-linecap="round" stroke-linejoin="round"/>
<path d="M29.533 38.18C26.9918 38.3208 29.3291 41.0501 31.5292 38.3469" stroke="black" stroke-opacity="0.9" stroke-width="2.4" stroke-linecap="round" stroke-linejoin="round"/>
<path d="M29.0084 42.9963C27.274 43.7517 26.3837 43.4257 25.1305 42.4434" stroke="black" stroke-opacity="0.9" stroke-width="2.4" stroke-linecap="round" stroke-linejoin="round"/>
<path d="M29.5902 42.4434C30.9627 44.6142 33.1404 43.8501 34.8257 42.4434" stroke="black" stroke-opacity="0.9" stroke-width="2.4" stroke-linecap="round" stroke-linejoin="round"/>
<path d="M16.4049 34.6917C14.5177 34.6682 11.4228 34.0811 10.2 33.9165" stroke="black" stroke-opacity="0.9" stroke-width="2.4" stroke-linecap="round" stroke-linejoin="round"/>
<path d="M16.7927 38.5278C14.4105 38.6412 12.3172 39.1701 10.3939 40.0773" stroke="black" stroke-opacity="0.9" stroke-width="2.4" stroke-linecap="round" stroke-linejoin="round"/>
<path d="M49.9499 32.1335C47.4247 32.4045 45.3305 33.0308 43.3573 34.3061" stroke="black" stroke-opacity="0.9" stroke-width="2.4" stroke-linecap="round" stroke-linejoin="round"/>
<path d="M49.7947 39.3672C47.755 38.8312 45.702 38.7858 43.5898 38.7858" stroke="black" stroke-opacity="0.9" stroke-width="2.4" stroke-linecap="round" stroke-linejoin="round"/>
</svg>
