<svg width="51" height="50" viewBox="0 0 51 50" fill="none" xmlns="http://www.w3.org/2000/svg">
<g clip-path="url(#clip0_3_26)">
<path d="M25.5 4.16669C14 4.16669 4.66669 13.5 4.66669 25C4.66669 36.5 14 45.8334 25.5 45.8334C37 45.8334 46.3334 36.5 46.3334 25C46.3334 13.5 37 4.16669 25.5 4.16669ZM25.5 10.4167C28.9584 10.4167 31.75 13.2084 31.75 16.6667C31.75 20.125 28.9584 22.9167 25.5 22.9167C22.0417 22.9167 19.25 20.125 19.25 16.6667C19.25 13.2084 22.0417 10.4167 25.5 10.4167ZM25.5 40C20.2917 40 15.6875 37.3334 13 33.2917C13.0625 29.1459 21.3334 26.875 25.5 26.875C29.6459 26.875 37.9375 29.1459 38 33.2917C35.3125 37.3334 30.7084 40 25.5 40Z" fill="#2EB88E"/>
</g>
<defs>
<clipPath id="clip0_3_26">
<rect width="50" height="50" fill="white" transform="translate(0.5)"/>
</clipPath>
</defs>
</svg>
