<svg width="51" height="50" viewBox="0 0 51 50" fill="none" xmlns="http://www.w3.org/2000/svg">
<path d="M36.7519 40C33.6177 42.3546 29.7219 43.75 25.5 43.75C15.1447 43.75 6.75 35.3554 6.75 25C6.75 14.6447 15.1447 6.25 25.5 6.25C35.8554 6.25 44.25 14.6447 44.25 25V28.125C44.25 31.0015 41.9181 33.3333 39.0417 33.3333C36.1652 33.3333 33.8333 31.0015 33.8333 28.125V16.6667M33.8333 25C33.8333 29.6023 30.1023 33.3333 25.5 33.3333C20.8976 33.3333 17.1667 29.6023 17.1667 25C17.1667 20.3976 20.8976 16.6667 25.5 16.6667C30.1023 16.6667 33.8333 20.3976 33.8333 25Z" stroke="#2B3331" stroke-width="5" stroke-linecap="round" stroke-linejoin="round"/>
</svg>
