<svg width="51" height="50" viewBox="0 0 51 50" fill="none" xmlns="http://www.w3.org/2000/svg">
<path fill-rule="evenodd" clip-rule="evenodd" d="M11.5 26.9086C11.5248 29.0796 12.4111 31.152 13.9639 32.6696C15.5168 34.1872 17.6089 35.0256 19.78 35.0006H20.9L24.22 38.4646C24.5582 38.8072 25.0196 39 25.501 39C25.9824 39 26.4438 38.8072 26.782 38.4646L30.1 35.0006H31.22C33.3912 35.0256 35.4832 34.1872 37.036 32.6696C38.5888 31.152 39.4752 29.0796 39.5 26.9086V17.0886C39.4462 12.569 35.7396 8.94834 31.22 9.00056H19.78C15.2604 8.94834 11.5538 12.569 11.5 17.0886V26.9086Z" stroke="#2B3331" stroke-width="3.6" stroke-linecap="round" stroke-linejoin="round"/>
<path d="M19.5 17.5005C18.6716 17.5005 18 18.1721 18 19.0005C18 19.8289 18.6716 20.5005 19.5 20.5005V17.5005ZM31.5 20.5005C32.3284 20.5005 33 19.8289 33 19.0005C33 18.1721 32.3284 17.5005 31.5 17.5005V20.5005ZM19.5 23.5004C18.6716 23.5004 18 24.172 18 25.0004C18 25.829 18.6716 26.5004 19.5 26.5004V23.5004ZM31.5 26.5004C32.3284 26.5004 33 25.829 33 25.0004C33 24.172 32.3284 23.5004 31.5 23.5004V26.5004ZM19.5 20.5005H31.5V17.5005H19.5V20.5005ZM19.5 26.5004H31.5V23.5004H19.5V26.5004Z" fill="#2B3331"/>
</svg>
