<svg width="51" height="50" viewBox="0 0 51 50" fill="none" xmlns="http://www.w3.org/2000/svg">
<g clip-path="url(#clip0_3_73)">
<path d="M33.3125 37.5H17.6875V40.625H33.3125V37.5Z" fill="#2B3331"/>
<path d="M30.1875 43.75H20.8125V46.875H30.1875V43.75Z" fill="#2B3331"/>
<path d="M25.5 3.125C21.356 3.125 17.3817 4.7712 14.4515 7.70146C11.5212 10.6317 9.87502 14.606 9.87502 18.75C9.76935 21.0208 10.2044 23.2843 11.1442 25.3542C12.0841 27.4241 13.502 29.2413 15.2813 30.6563C16.8438 32.1094 17.6875 32.9375 17.6875 34.375H20.8125C20.8125 31.5 19.0781 29.8906 17.3906 28.3438C15.9303 27.2254 14.7664 25.7661 14.0009 24.0935C13.2355 22.4209 12.8918 20.5862 13 18.75C13 15.4348 14.317 12.2554 16.6612 9.91117C19.0054 7.56696 22.1848 6.25 25.5 6.25C28.8152 6.25 31.9946 7.56696 34.3388 9.91117C36.6831 12.2554 38 15.4348 38 18.75C38.1064 20.5876 37.7604 22.4232 36.9921 24.0958C36.2239 25.7685 35.057 27.2271 33.5938 28.3438C31.9219 29.9062 30.1875 31.4688 30.1875 34.375H33.3125C33.3125 32.9375 34.1406 32.1094 35.7188 30.6406C37.4968 29.2281 38.914 27.4136 39.8539 25.3464C40.7938 23.2792 41.2294 21.0184 41.125 18.75C41.125 16.6981 40.7209 14.6663 39.9356 12.7706C39.1504 10.8749 37.9995 9.15237 36.5486 7.70146C35.0976 6.25054 33.3752 5.09961 31.4794 4.31438C29.5837 3.52915 27.5519 3.125 25.5 3.125Z" fill="#2B3331"/>
</g>
<defs>
<clipPath id="clip0_3_73">
<rect width="50" height="50" fill="white" transform="translate(0.5)"/>
</clipPath>
</defs>
</svg>
