<svg width="51" height="50" viewBox="0 0 51 50" fill="none" xmlns="http://www.w3.org/2000/svg">
<g clip-path="url(#clip0_3_67)">
<path d="M43.0208 17.5208L32.9583 7.45833C32.1875 6.6875 31.125 6.25 30.0208 6.25H10.9167C8.625 6.25 6.75 8.125 6.75 10.4167V39.5833C6.75 41.875 8.625 43.75 10.9167 43.75H40.0833C42.375 43.75 44.25 41.875 44.25 39.5833V20.4792C44.25 19.375 43.8125 18.3125 43.0208 17.5208ZM15.0833 14.5833H29.6667V18.75H15.0833V14.5833ZM35.9167 35.4167H15.0833V31.25H35.9167V35.4167ZM35.9167 27.0833H15.0833V22.9167H35.9167V27.0833Z" fill="#2B3331"/>
</g>
<defs>
<clipPath id="clip0_3_67">
<rect width="50" height="50" fill="white" transform="translate(0.5)"/>
</clipPath>
</defs>
</svg>
