<svg width="58" height="44" viewBox="0 0 58 44" fill="none" xmlns="http://www.w3.org/2000/svg">
<path d="M38.4823 29.6812C35.6119 29.4954 33.355 27.1487 33.355 24.2802C33.355 24.1845 33.3569 24.0887 33.3626 23.993V24.0061C33.3569 23.916 33.3531 23.8109 33.3531 23.7039C33.3531 20.8409 35.6137 18.5018 38.4671 18.331H38.4823C41.3489 18.4849 43.6133 20.8184 43.6133 23.6757C43.6133 23.7921 43.6095 23.9066 43.6019 24.0211V24.0061C43.6076 24.1 43.6114 24.2107 43.6114 24.3215C43.6114 27.1807 41.3489 29.5179 38.4956 29.6794H38.4804L38.4823 29.6812ZM19.55 29.6812C16.6796 29.4954 14.4228 27.1487 14.4228 24.2802C14.4228 24.1845 14.4247 24.0887 14.4304 23.993V24.0061C14.4247 23.916 14.4209 23.8109 14.4209 23.7039C14.4209 20.8409 16.6815 18.5018 19.5348 18.331H19.55C22.4166 18.4849 24.6811 20.8184 24.6811 23.6757C24.6811 23.7921 24.6773 23.9066 24.6697 24.0211V24.0061C24.6754 24.0962 24.6792 24.2014 24.6792 24.3084C24.6792 27.1713 22.4185 29.5104 19.5652 29.6812H19.55ZM48.7425 3.96572C45.3933 2.40379 41.5028 1.16852 37.4298 0.453258L37.1468 0.411958C37.1373 0.41008 37.1259 0.408203 37.1145 0.408203C37.048 0.408203 36.991 0.443872 36.9606 0.496437C36.5161 1.26802 36.0336 2.23108 35.5986 3.21855L35.5169 3.42693C33.5602 3.11717 31.3034 2.94071 29.0047 2.94071C26.7061 2.94071 24.4493 3.11717 22.2476 3.45697L22.4926 3.42506C21.9797 2.24234 21.4896 1.28116 20.9482 0.350006L21.0261 0.49456C20.9938 0.440118 20.9349 0.406325 20.8684 0.406325C20.8589 0.406325 20.8475 0.406326 20.838 0.408203C16.482 1.16476 12.5915 2.39816 8.95549 4.08212L9.24234 3.96197C9.21005 3.97511 9.18345 3.99764 9.16636 4.0258C3.74466 11.612 0.5 21.0512 0.5 31.2394C0.5 32.9421 0.591185 34.6223 0.767855 36.2781L0.750758 36.0716C0.756457 36.1261 0.784953 36.1711 0.824846 36.203C4.89017 39.2086 9.61658 41.6304 14.7172 43.2205L15.0516 43.3106C15.0668 43.3162 15.0858 43.3181 15.1048 43.3181C15.1656 43.3181 15.2187 43.2899 15.251 43.2468C16.2674 41.8951 17.2343 40.3632 18.0721 38.7562L18.1614 38.5685C18.1728 38.5459 18.1804 38.5178 18.1804 38.4878C18.1804 38.4108 18.131 38.347 18.0626 38.3207H18.0607C16.3282 37.6599 14.8635 36.9559 13.4691 36.1486L13.6154 36.2275C13.5603 36.1955 13.5242 36.1373 13.5242 36.0716C13.5242 36.0134 13.5527 35.9609 13.5964 35.929C13.8947 35.7074 14.1948 35.4784 14.4798 35.2456C14.5102 35.2212 14.5501 35.2062 14.5919 35.2062C14.6184 35.2062 14.6431 35.2118 14.664 35.2212H14.6621C18.8566 37.2131 23.7806 38.377 28.9782 38.377C34.1757 38.377 39.1016 37.2131 43.4974 35.1349L43.2942 35.2212C43.317 35.2099 43.3417 35.2043 43.3702 35.2043C43.4119 35.2043 43.4518 35.2193 43.4822 35.2437C43.7672 35.4765 44.0654 35.7093 44.3675 35.929C44.4112 35.9628 44.4397 36.0153 44.4397 36.0735C44.4397 36.1392 44.4036 36.1955 44.3523 36.2275C43.0966 36.969 41.6319 37.6711 40.1065 38.2512L39.907 38.3188C39.8386 38.3451 39.7893 38.4108 39.7893 38.4859C39.7893 38.5159 39.7969 38.5441 39.8102 38.5685C40.7619 40.3707 41.7269 41.8988 42.7946 43.35L42.7186 43.243C42.7509 43.2881 42.806 43.3181 42.8648 43.3181C42.8838 43.3181 42.9028 43.3143 42.9199 43.3106C48.3625 41.636 53.0965 39.2143 57.291 36.1167L57.1676 36.2049C57.2093 36.1749 57.2359 36.128 57.2416 36.0754C57.4069 34.6036 57.5 32.8952 57.5 31.1662C57.5 21.0005 54.2477 11.5858 48.7178 3.88124L48.8165 4.02767C48.8013 3.99764 48.7748 3.97323 48.7444 3.96009L48.7425 3.96572Z" fill="white"/>
</svg>
