<svg width="50" height="51" viewBox="0 0 50 51" fill="none" xmlns="http://www.w3.org/2000/svg">
<path fill-rule="evenodd" clip-rule="evenodd" d="M25 0.350006C38.8075 0.350006 50 11.8248 50 25.9823C50 37.3048 42.845 46.9098 32.9175 50.3023C31.65 50.5548 31.2 49.7544 31.2 49.0719C31.2 48.2269 31.23 45.467 31.23 42.037C31.23 39.647 30.43 38.0871 29.5325 37.2921C35.1 36.6571 40.95 34.4894 40.95 24.6444C40.95 21.8444 39.98 19.5595 38.375 17.7645C38.635 17.117 39.4925 14.5099 38.13 10.9799C38.13 10.9799 36.035 10.2931 31.2625 13.608C29.265 13.0405 27.125 12.755 25 12.745C22.875 12.755 20.7375 13.0405 18.7425 13.608C13.965 10.2931 11.865 10.9799 11.865 10.9799C10.5075 14.5099 11.365 17.117 11.6225 17.7645C10.025 19.5595 9.04751 21.8444 9.04751 24.6444C9.04751 34.4644 14.885 36.6654 20.4375 37.3129C19.7225 37.9529 19.075 39.0819 18.85 40.7394C17.425 41.3944 13.805 42.528 11.575 38.6105C11.575 38.6105 10.2525 36.1476 7.7425 35.9676C7.7425 35.9676 5.305 35.9353 7.5725 37.5253C7.5725 37.5253 9.21 38.3128 10.3475 41.2753C10.3475 41.2753 11.815 45.8502 18.77 44.3002C18.7825 46.4426 18.805 48.4619 18.805 49.0719C18.805 49.7494 18.345 50.5423 17.0975 50.3048C7.16249 46.9173 0 37.3073 0 25.9823C0 11.8248 11.195 0.350006 25 0.350006Z" fill="white"/>
</svg>
