<svg width="49" height="41" viewBox="0 0 49 41" fill="none" xmlns="http://www.w3.org/2000/svg">
<path d="M43.9633 10.3187C43.9944 10.7562 43.9944 11.1938 43.9944 11.6313C43.9944 24.9749 33.8898 40.35 15.4214 40.35C9.73161 40.35 4.4461 38.6937 0 35.8188C0.808407 35.9125 1.58562 35.9438 2.42513 35.9438C7.11986 35.9438 11.4416 34.3501 14.8928 31.6313C10.4778 31.5375 6.77791 28.6313 5.50314 24.6313C6.12502 24.7249 6.74681 24.7875 7.3998 24.7875C8.30142 24.7875 9.20314 24.6624 10.0426 24.4438C5.44103 23.5062 1.98977 19.4437 1.98977 14.5375V14.4125C3.32665 15.1625 4.88136 15.6313 6.52908 15.6937C3.82412 13.8812 2.05198 10.7875 2.05198 7.28744C2.05198 5.41247 2.54935 3.69372 3.41996 2.19371C8.36353 8.31871 15.7944 12.3186 24.1269 12.7562C23.9714 12.0062 23.8781 11.225 23.8781 10.4438C23.8781 4.88121 28.3553 0.350006 33.9207 0.350006C36.8122 0.350006 39.4238 1.56875 41.2583 3.5375C43.5279 3.10003 45.7043 2.25623 47.632 1.10001C46.8857 3.44381 45.3001 5.41257 43.217 6.66248C45.238 6.44384 47.1968 5.88121 49 5.10004C47.6322 7.09996 45.9221 8.88114 43.9633 10.3187Z" fill="white"/>
</svg>
